General
Unique ID                                : 144768284023249955791678335419852877459 (0x6CE95B794F5A9692424D143190C16E93)
Complete name                            : Alien Liberty International - WILD ANGEL [WEB-DL 1080p AAC 2.0 x264-SEKAI].mkv
Format                                   : Matroska
Format version                           : Version 4
File size                                : 261 MiB
Duration                                 : 3 min 38 s
Overall bit rate                         : 10.0 Mb/s
Frame rate                               : 29.970 FPS
Title                                    : Alien Liberty International - WILD ANGEL [WEB-DL 1080p AAC 2.0 x264-SEKAI]
Encoded date                             : 2026-04-25 19:37:46 UTC
Writing application                      : mkvmerge 98.0 ('Chonks') 64-bit
Writing library                          : libebml v1.4.5 + libmatroska v1.7.1
Cover                                    : Yes
Cover description                        : cover.jpg
Cover type                               : Cover
Attachments                              : cover.jpg
Website                                  : https://sekai-archivist.blogspot.com/

Video
ID                                       : 1
Format                                   : AVC
Format/Info                              : Advanced Video Codec
Format profile                           : High@L4
Format settings                          : CABAC / 4 Ref Frames
Format settings, CABAC                   : Yes
Format settings, Reference frames        : 4 frames
Format settings, Slice count             : 8 slices per frame
Codec ID                                 : V_MPEG4/ISO/AVC
Duration                                 : 3 min 38 s
Bit rate                                 : 9 703 kb/s
Width                                    : 1 920 pixels
Height                                   : 1 080 pixels
Display aspect ratio                     : 16:9
Frame rate mode                          : Constant
Frame rate                               : 29.970 (30000/1001) FPS
Color space                              : YUV
Chroma subsampling                       : 4:2:0 (Type 2)
Bit depth                                : 8 bits
Scan type                                : Progressive
Bits/(Pixel*Frame)                       : 0.156
Stream size                              : 252 MiB (97%)
Language                                 : Japanese
Default                                  : Yes
Forced                                   : No
Color range                              : Limited
Color primaries                          : BT.709
Transfer characteristics                 : BT.709
Matrix coefficients                      : BT.709

Audio
ID                                       : 2
Format                                   : AAC LC
Format/Info                              : Advanced Audio Codec Low Complexity
Codec ID                                 : A_AAC-2
Duration                                 : 3 min 38 s
Bit rate                                 : 255 kb/s
Channel(s)                               : 2 channels
Channel layout                           : L R
Sampling rate                            : 48.0 kHz
Frame rate                               : 46.875 FPS (1024 SPF)
Compression mode                         : Lossy
Stream size                              : 6.64 MiB (3%)
Language                                 : Japanese
Default                                  : Yes
Forced                                   : No

Image
Type                                     : Cover
Title                                    : cover.jpg
Format                                   : JPEG
Muxing mode                              : Attachment
Width                                    : 5 000 pixels
Height                                   : 2 813 pixels
Color space                              : YUV
Chroma subsampling                       : 4:2:0
Bit depth                                : 8 bits
Compression mode                         : Lossy
Stream size                              : 1.33 MiB (1%)


